<svg xmlns="http://www.w3.org/2000/svg" viewBox="0 0 184.32 104.72"><title>資產 11</title><g id="圖層_2" data-name="圖層 2"><g id="圖層_1-2" data-name="圖層 1"><g id="圖層_1-2-2" data-name="圖層 1-2"><path d="M44.12,0,72.49,16.38A31.48,31.48,0,0,1,88.23,43.64V70.73L54,50.92V45.26L83.31,62.2V46.49A31.5,31.5,0,0,0,67.57,19.22L49,8.51v96.21L0,76.41V25.47L23.46,39A31.49,31.49,0,0,1,39.2,66.27v19l-4.92-2.82V69.11A31.48,31.48,0,0,0,18.54,41.85L4.92,34V73.57L44.11,96.2Z"/><path d="M72.62,104.08a33.65,33.65,0,0,0-3.89-1.84A33.8,33.8,0,0,1,60,104.46a5.7,5.7,0,0,0-1.12-1.67A40.66,40.66,0,0,0,66,101.21c-1.53-.56-3.09-1-4.55-1.42a18.74,18.74,0,0,0,1.49-1.72l-3.27.16-.22-1.84c1.38,0,3.06-.11,4.87-.17a21.89,21.89,0,0,0,1.28-2H60.77v-4.7h5.71v-1H61.61v-3H59.4V83.66h2.21V80.89h4.87V79.05h2.24v1.84h5.15v2.77H76v1.92H73.87v3H68.73v1h5.86v4.7H68.22c-.37.64-.75,1.26-1.15,1.89l4.21-.19V94.75h2.3v1.06l1.31-.06,0,1.7-1.47.08A5.75,5.75,0,0,1,70.9,101c1.38.58,2.62,1.16,3.59,1.64ZM63.17,92.56h3.31V91.18H63.17Zm.85-10v1.23h2.46V82.55Zm2.46,4.26V85.42H64v1.39ZM65.74,97.9c-.25.36-.5.66-.78,1,1.15.33,2.4.75,3.55,1.16A5.28,5.28,0,0,0,71,97.68Zm3-15.35v1.23h2.62V82.55Zm2.62,4.26V85.42H68.73v1.39Zm-2.62,4.36v1.38h3.34V91.17ZM85.61,86.5A33.68,33.68,0,0,1,82.89,97a13.31,13.31,0,0,0,5.12,5.4,6.74,6.74,0,0,0-1.69,1.8,14.87,14.87,0,0,1-4.74-4.86A16.93,16.93,0,0,1,76,104.7a8.72,8.72,0,0,0-1.5-1.92,14.12,14.12,0,0,0,5.8-5.86,32.32,32.32,0,0,1-2.09-6.56A19.16,19.16,0,0,1,76.74,93a12.17,12.17,0,0,0-1.9-1.61c2.09-2.92,3.23-7.51,3.84-12.17l2.46.27c-.25,1.61-.53,3.23-.92,4.76h7.49V86.5Zm-5.93,0A39,39,0,0,0,81.55,94a35.18,35.18,0,0,0,1.59-7.53Z"/><path d="M101.29,79.89a40.54,40.54,0,0,1-3,5.76v18.84H95.33V89.71a23,23,0,0,1-2.55,2.76,18,18,0,0,0-1.62-2.61,29.42,29.42,0,0,0,7.37-10.7Zm18.25,21v2.47h-19.4v-2.47H111a92.46,92.46,0,0,0,2.8-13.36l3,.46c-.84,4.19-2,9.36-3.15,12.92ZM118.39,86.4h-17V83.9h17ZM105.32,99.88a99.26,99.26,0,0,0-2-11.62l2.59-.53a96.08,96.08,0,0,1,2.24,11.4Zm3.56-16.12a24.35,24.35,0,0,0-1.44-4.4l2.77-.61A34.15,34.15,0,0,1,111.76,83Z"/><path d="M135.32,86.16c-.09,1.31-.19,2.64-.37,4h13.26a9.3,9.3,0,0,1-.13,1.17c-.59,7.67-1.18,10.73-2.43,11.86a4.45,4.45,0,0,1-3,1.09,51.44,51.44,0,0,1-5.27-.06,4.83,4.83,0,0,0-1-2.53c2.21.17,4.33.2,5.21.2a2.4,2.4,0,0,0,1.5-.34c.87-.64,1.43-3.22,1.93-8.89H134.51c-1,4.78-3.27,9.25-9,12a8.34,8.34,0,0,0-2.12-2.11c7.73-3.5,8.45-10.26,8.75-16.37h-8.16V83.63H137.3a25.86,25.86,0,0,0-2-3.9l2.84-.94a27.2,27.2,0,0,1,2.21,4l-2.09.81h12.83v2.53Z"/><path d="M165.55,97.57c-3.3,1.26-6.83,2.53-9.6,3.51L155,98.44c1.12-.31,2.49-.76,4-1.25v-9h-3.53V85.7h3.53V79.39h2.71V85.7h3.09v2.45h-3.09v8.17L165,95.24Zm15.53,4.57c.75,0,.92-.31,1-2a7.42,7.42,0,0,0,2.22.86c-.25,2.53-1,3.22-3,3.22h-4c-2.76,0-3.4-.64-3.4-3v-8h-1.74c-.44,5.06-1.59,9.06-6.52,11.33a7.65,7.65,0,0,0-1.69-1.94c4.3-1.81,5.21-5.2,5.58-9.39h-3.43V81.81h3.18a26,26,0,0,0,1-2.86l3.06.36a23.31,23.31,0,0,1-1.25,2.5h10.45V93.27h-6.14v7.94c0,.81.19.93,1.21.93ZM168.64,86.51H173V83.9h-4.33Zm0,4.67H173V88.51h-4.33Zm11.2-7.28h-4.31v2.61h4.31Zm0,4.61h-4.31v2.66h4.31Zm2.52,11.75c-.09-.24-.19-.55-.31-.83-4,.42-4.65.53-5.07.7a10,10,0,0,0-.65-1.59,1.43,1.43,0,0,0,.92-.81,13.38,13.38,0,0,0,1.65-3.89l1.84.5a22.73,22.73,0,0,1-2,4l2.76-.22c-.34-.72-.69-1.44-1-2.08l1.39-.46a30.88,30.88,0,0,1,2,4.09Z"/><path d="M98.07,60.41h3.19c3.77,0,5.92,1.75,5.92,5.12s-2.15,5.2-5.82,5.2H98.07Zm3.05,9c2.64,0,4.06-1.3,4.06-3.87s-1.42-3.8-4.06-3.8H100V69.4Z"/><path d="M110.58,60.41h1.94V70.73h-1.94Z"/><path d="M115.89,65.61c0-3.23,2.47-5.2,5.73-5.2a5.52,5.52,0,0,1,3.65,1.26l-1,1a3.73,3.73,0,0,0-2.54-.89,3.8,3.8,0,1,0,.08,7.59,3.67,3.67,0,0,0,1.94-.49V66.53h-2.44V65.24h4.19v4.33a6.22,6.22,0,0,1-3.89,1.16C118.28,70.73,115.89,68.86,115.89,65.61Z"/><path d="M129.09,60.41H131V70.73h-1.93Z"/><path d="M139.67,60.41h3.72c2.74,0,4.69.79,4.69,3.12s-2,3.29-4.61,3.29h-1.84v3.91H139.7Zm3.62,5.1c2,0,2.91-.63,2.91-2s-1-1.81-3-1.81h-1.61v3.8Z"/><path d="M156,67.79h-4.27l-1.05,2.94h-2l4.08-10.32h2.23l4.07,10.32h-2Zm-.46-1.28-.48-1.38c-.42-1.12-.78-2.27-1.17-3.44h-.07c-.35,1.18-.73,2.3-1.13,3.44l-.5,1.38Z"/><path d="M160.73,65.61c0-3.23,2.44-5.2,5.53-5.2a5.33,5.33,0,0,1,3.49,1.26l-1,1a3.61,3.61,0,0,0-2.41-.89,3.45,3.45,0,0,0-3.58,3.77c0,2.34,1.38,3.82,3.53,3.82A4,4,0,0,0,169,68.3l1,1a5.41,5.41,0,0,1-3.83,1.43C163.11,70.73,160.73,68.86,160.73,65.61Z"/><path d="M173,60.41H175v4.88H175l4.69-4.88h2.16l-3.81,4,4.42,6.34h-2.15l-3.48-5.07L175,67.6v3.11H173Z"/></g></g></g></svg>