<svg xmlns="http://www.w3.org/2000/svg" viewBox="0 0 107.99 109.65"><defs><style>.cls-1{fill:#b7dcc8;}.cls-2{fill:#3bb3c3;}.cls-3{fill:#4293a0;}.cls-4{font-size:25.38px;fill:#fff;font-family:NotoSansTC-Black-83pv-RKSJ-H, Noto Sans TC Black;}.cls-5{letter-spacing:-0.03em;}</style></defs><title>資產 10</title><g id="圖層_2" data-name="圖層 2"><g id="圖層_1-2" data-name="圖層 1"><path class="cls-1" d="M20,96.67c-6.43-.21-11.34-1.15-15.21-5C.17,87.1-.72,81.46.48,75.35c1.43-7.22,5.18-13.24,10.17-18.53a49,49,0,0,1,24-14.4,27.72,27.72,0,0,1,14.1-.11c8.4,2.25,13.3,10.11,11.89,19-1.19,7.6-4.87,13.94-9.94,19.49A48.5,48.5,0,0,1,28.12,95.12,74.56,74.56,0,0,1,20,96.67Z"/><path class="cls-2" d="M107.07,24.06a47.55,47.55,0,0,1-.92,22.2c-3.11,12-9.06,22.48-16.94,31.93A94.43,94.43,0,0,1,61,101.46c-10.75,5.72-22.15,9.08-34.48,8a36.39,36.39,0,0,1-8.3-2c3.32-.63,6.69-1.1,10-1.92A62.54,62.54,0,0,0,54.78,91.22c6.7-6,11.86-12.92,14.65-21.52a28.74,28.74,0,0,0,1.39-11.42c-.12-1.39.14-2.08,1.8-2.37C83.17,54,91.41,48.25,98.25,40.22A45,45,0,0,0,107.07,24.06Z"/><path class="cls-3" d="M58.37,34.54c.32-5.12,3.23-11.06,7.84-16.37a39.66,39.66,0,0,1,9.09-7.92C80.54,7,86.17,5.3,92.36,6.21c4.83.71,9.06,5.67,9.47,10.65.6,7.31-2.1,13.56-6.42,19.09-3.13,4-6.79,7.69-11.55,9.88-3.29,1.51-6.45,3.12-10.22,3.69C65.14,50.82,58.15,45.15,58.37,34.54Z"/><path class="cls-2" d="M51.63,36.6c-16.45-3.53-31,1.33-44.55,10.3l-.43-.38C9.07,42.8,11.26,38.9,14,35.39A98.4,98.4,0,0,1,39.68,11.5C51.25,4.21,63.67-.38,77.58,0a25.52,25.52,0,0,1,3,.3c.94.13,1.86.34,2.8.52C66.68,7.19,55.66,18.61,51.63,36.6Z"/><text class="cls-4" transform="translate(5 79.97)"><tspan class="cls-5">K</tspan><tspan x="17.16" y="0">YD</tspan></text></g></g></svg>