<svg xmlns="http://www.w3.org/2000/svg" viewBox="0 0 48 48"><defs><style>.cls-1{fill:#9acbea;}.cls-2{fill:#fff;}</style></defs><title>資產 8</title><g id="圖層_2" data-name="圖層 2"><g id="圖層_1-2" data-name="圖層 1"><rect class="cls-1" width="48" height="48"/><path class="cls-2" d="M9.76,37c0-4.91,3.16-7.78,6.92-7.78A6.05,6.05,0,0,1,21,31.12L19.47,33a3.81,3.81,0,0,0-2.73-1.25c-2.25,0-3.94,1.93-3.94,5.13s1.52,5.18,3.88,5.18a4.14,4.14,0,0,0,3.07-1.46l1.57,1.84a6,6,0,0,1-4.74,2.2C12.82,44.65,9.76,42,9.76,37Z"/><path class="cls-2" d="M22.1,42.48l1.71-2.06a5.83,5.83,0,0,0,3.78,1.65c1.55,0,2.37-.66,2.37-1.71s-.9-1.44-2.23-2l-2-.84a4.3,4.3,0,0,1-3-4c0-2.43,2.13-4.3,5.14-4.3a6.61,6.61,0,0,1,4.67,1.91L31,33a4.73,4.73,0,0,0-3.16-1.23c-1.3,0-2.15.58-2.15,1.57s1.07,1.45,2.33,2L30,36.1c1.81.75,3,1.89,3,4,0,2.44-2,4.51-5.47,4.51A8,8,0,0,1,22.1,42.48Z"/><path class="cls-2" d="M34.26,42.48,36,40.42a5.86,5.86,0,0,0,3.78,1.65c1.55,0,2.38-.66,2.38-1.71s-.91-1.44-2.24-2l-2-.84a4.31,4.31,0,0,1-3-4c0-2.43,2.13-4.3,5.14-4.3a6.61,6.61,0,0,1,4.67,1.91L43.19,33A4.71,4.71,0,0,0,40,31.76c-1.3,0-2.15.58-2.15,1.57s1.07,1.45,2.34,2l2,.82c1.8.75,3,1.89,3,4,0,2.44-2,4.51-5.47,4.51A8,8,0,0,1,34.26,42.48Z"/></g></g></svg>