<svg xmlns="http://www.w3.org/2000/svg" viewBox="0 0 70.32 109.68"><defs><style>.cls-1{fill:#666;}</style></defs><title>資產 12</title><g id="圖層_2" data-name="圖層 2"><g id="圖層_1-2" data-name="圖層 1"><path class="cls-1" d="M13.32,0c7.32,0,13.2,5.28,13.2,12.72s-5.88,12.72-13.2,12.72S0,20,0,12.72,5.88,0,13.32,0Zm43.8,0c7.44,0,13.2,5.28,13.2,12.72s-5.76,12.72-13.2,12.72S43.92,20,43.92,12.72,49.68,0,57.12,0Z"/><path class="cls-1" d="M13.32,42.12c7.32,0,13.2,5.28,13.2,12.72s-5.88,12.72-13.2,12.72S0,62.16,0,54.84,5.88,42.12,13.32,42.12Zm43.8,0c7.44,0,13.2,5.28,13.2,12.72s-5.76,12.72-13.2,12.72-13.2-5.4-13.2-12.72S49.68,42.12,57.12,42.12Z"/><path class="cls-1" d="M13.32,84.24c7.32,0,13.2,5.28,13.2,12.72s-5.88,12.72-13.2,12.72S0,104.28,0,97,5.88,84.24,13.32,84.24Zm43.8,0c7.44,0,13.2,5.28,13.2,12.72s-5.76,12.72-13.2,12.72-13.2-5.4-13.2-12.72S49.68,84.24,57.12,84.24Z"/></g></g></svg>