<svg xmlns="http://www.w3.org/2000/svg" viewBox="0 0 48 48"><defs><style>.cls-1{fill:#f16529;}.cls-2{fill:#fff;}</style></defs><title>資產 7</title><g id="圖層_2" data-name="圖層 2"><g id="圖層_1-2" data-name="圖層 1"><rect class="cls-1" width="48" height="48"/><path class="cls-2" d="M3.68,33.43H5.92v4.41h4.24V33.43h2.23V44.64H10.16V39.79H5.92v4.85H3.68Z"/><path class="cls-2" d="M17.37,35.29H14.22V33.43h8.57v1.86H19.61v9.35H17.37Z"/><path class="cls-2" d="M24.61,33.43h2.48L29,38.67c.24.7.45,1.44.68,2.16h.07c.25-.72.44-1.46.69-2.16l1.86-5.24h2.48V44.64h-2V40c0-1.06.16-2.62.27-3.68H33L32,38.91l-1.73,4.71H29l-1.74-4.71-.9-2.63h-.06c.11,1.06.29,2.62.29,3.68v4.68h-2Z"/><path class="cls-2" d="M37.54,33.43h2.24v9.33h4.54v1.88H37.54Z"/></g></g></svg>