<svg xmlns="http://www.w3.org/2000/svg" viewBox="0 0 151.82 228.04">
    <defs>
        <style>.cls-1{fill:none;stroke:gray;stroke-miterlimit:10;stroke-width:5px;}</style>
    </defs>
    <title>資產 9</title>
    <g id="圖層_2" data-name="圖層 2">
        <g id="圖層_1-2" data-name="圖層 1">
            <path class="cls-1" d="M78.5,2.52c-2.31-.32-73,2-75.93,59-2.27,43.81,55.3,40.19,73,39,0,0,78.75,10.45,73.5-39.5C143.07,4,82.07,3,78.5,2.52Z"/>
            <path class="cls-1" d="M18.57,77.52c0-9.39,26.83-17,60-17"/>
            <path class="cls-1" d="M138.57,77.52c0-9.39-26.84-17-60-17"/>
            <path class="cls-1" d="M82.57,224.52c10-18-31.89-53.21-26-76,16-62,0-65,0-65"/>
            <path class="cls-1" d="M121.85,82.52s-22,0,4,62c9.75,23.25,3.19,44.39-8.82,61.74"/>
            <path class="cls-1" d="M111.85,82.52s-19,0,0,89c4.76,22.3,0,39.2-9.7,52"/>
            <path class="cls-1" d="M67.85,223.52c-10-18,31.88-53.21,26-76-16-62,0-65,0-65"/>
            <path class="cls-1" d="M30.87,85.52s22,0-4,62c-9.75,23.25-3.19,44.39,8.82,61.74"/>
            <path class="cls-1" d="M40.87,85.52s19,0,0,89c-4.76,22.3,0,39.2,9.7,52"/>
        </g>
    </g>
</svg>