<svg class="wave main_wave1" 
    xmlns="http://www.w3.org/2000/svg" viewBox="0 0 530.47 205.65">
    <defs>
        <style>.cls-1{
    fill: none;
    stroke: gray;
    stroke-linecap: round;
    stroke-width: 5px;}</style>
    </defs>
    <path class="cls-1" d="M265,18.85c16.35,0,39.15-16.35,52.2-16.35,16,0,41.18,18,55.45,18,14.66,0,37.86-18,50.73-18,14.65,0,42.34,19.16,57.49,19.16,13.53,0,36.3-19.16,49.6-19.16" />
    <path class="cls-1" d="M265,44.77c16.35,0,39.15-16.34,52.2-16.34,16,0,41.18,18,55.45,18,14.66,0,37.86-18,50.73-18,14.65,0,42.34,19.16,57.49,19.16,13.53,0,36.3-19.16,49.6-19.16" />
    <path class="cls-1" d="M265,70.7c16.35,0,39.15-16.35,52.2-16.35,16,0,41.18,18,55.45,18,14.66,0,37.86-18,50.73-18,14.65,0,42.34,19.17,57.49,19.17,13.53,0,36.3-19.17,49.6-19.17" />
    <path class="cls-1" d="M265,96.63c16.35,0,39.15-16.35,52.2-16.35,16,0,41.18,18,55.45,18,14.66,0,37.86-18,50.73-18,14.65,0,42.34,19.16,57.49,19.16,13.53,0,36.3-19.16,49.6-19.16" />
    <path class="cls-1" d="M265,122.55c16.35,0,39.15-16.34,52.2-16.34,16,0,41.18,18,55.45,18,14.66,0,37.86-18,50.73-18,14.65,0,42.34,19.16,57.49,19.16,13.53,0,36.3-19.16,49.6-19.16" />
    <path class="cls-1" d="M265,148.48c16.35,0,39.15-16.35,52.2-16.35,16,0,41.18,18,55.45,18,14.66,0,37.86-18,50.73-18,14.65,0,42.34,19.17,57.49,19.17,13.53,0,36.3-19.17,49.6-19.17" />
    <path class="cls-1" d="M265,174.41c16.35,0,39.15-16.35,52.2-16.35,16,0,41.18,18,55.45,18,14.66,0,37.86-18,50.73-18,14.65,0,42.34,19.16,57.49,19.16,13.53,0,36.3-19.16,49.6-19.16" />
    <path class="cls-1" d="M265,200.33c16.35,0,39.15-16.34,52.2-16.34,16,0,41.18,18,55.45,18,14.66,0,37.86-18,50.73-18,14.65,0,42.34,19.16,57.49,19.16,13.53,0,36.3-19.16,49.6-19.16" />
    <path class="cls-1" d="M265.47,18.85c-16.35,0-39.15-16.35-52.2-16.35-16,0-41.18,18-55.45,18-14.66,0-37.87-18-50.73-18C92.43,2.5,64.75,21.66,49.6,21.66,36.07,21.66,13.29,2.5,0,2.5" />
    <path class="cls-1" d="M265.47,44.77c-16.35,0-39.15-16.34-52.2-16.34-16,0-41.18,18-55.45,18-14.66,0-37.87-18-50.73-18-14.66,0-42.34,19.16-57.49,19.16C36.07,47.59,13.29,28.43,0,28.43" />
    <path class="cls-1" d="M265.47,70.7c-16.35,0-39.15-16.35-52.2-16.35-16,0-41.18,18-55.45,18-14.66,0-37.87-18-50.73-18-14.66,0-42.34,19.17-57.49,19.17C36.07,73.52,13.29,54.35,0,54.35" />
    <path class="cls-1" d="M265.47,96.63c-16.35,0-39.15-16.35-52.2-16.35-16,0-41.18,18-55.45,18-14.66,0-37.87-18-50.73-18-14.66,0-42.34,19.16-57.49,19.16C36.07,99.44,13.29,80.28,0,80.28" />
    <path class="cls-1" d="M265.47,122.55c-16.35,0-39.15-16.34-52.2-16.34-16,0-41.18,18-55.45,18-14.66,0-37.87-18-50.73-18-14.66,0-42.34,19.16-57.49,19.16-13.53,0-36.31-19.16-49.6-19.16" />
    <path class="cls-1" d="M265.47,148.48c-16.35,0-39.15-16.35-52.2-16.35-16,0-41.18,18-55.45,18-14.66,0-37.87-18-50.73-18-14.66,0-42.34,19.17-57.49,19.17-13.53,0-36.31-19.17-49.6-19.17" />
    <path class="cls-1" d="M265.47,174.41c-16.35,0-39.15-16.35-52.2-16.35-16,0-41.18,18-55.45,18-14.66,0-37.87-18-50.73-18-14.66,0-42.34,19.16-57.49,19.16-13.53,0-36.31-19.16-49.6-19.16" />
    <path class="cls-1" d="M265.47,200.33c-16.35,0-39.15-16.34-52.2-16.34-16,0-41.18,18-55.45,18-14.66,0-37.87-18-50.73-18-14.66,0-42.34,19.16-57.49,19.16C36.07,203.15,13.29,184,0,184" />
</svg>